<?xml version="1.0" encoding="utf-8"?>
<!-- Generator: Adobe Illustrator 26.5.0, SVG Export Plug-In . SVG Version: 6.00 Build 0)  -->
<svg version="1.1" id="Livello_1" xmlns="http://www.w3.org/2000/svg" xmlns:xlink="http://www.w3.org/1999/xlink" x="0px" y="0px"
	 viewBox="0 0 1771.7 500" style="enable-background:new 0 0 1771.7 500;" xml:space="preserve">
<style type="text/css">
	.st0{fill:#6F39F8;}
	.st1{fill:#FFFFFF;}
	.st2{fill:#333333;}
</style>
<g>
	<circle class="st0" cx="260.7" cy="250" r="245"/>
	<path class="st1" d="M416.6,278.1c0,6.4-0.9,12.8-2.7,18.9l-0.1,0.2l-1.5,4.7l-0.1,0.2v0.1c-3.4,7.7-7.5,15.1-12.2,22.2l-0.2,0.3
		c-25.7,38-60.5,47.3-79.5,49.5l0,0c-3.6,0.4-6.9,0.7-9.3,0.8h-0.3l-0.2-0.1h-2l-1.6-0.1h-0.2l-0.8-0.1l-0.6-0.1h-0.2
		c-2.7-0.3-5.3-0.9-7.9-1.8c-2.3-0.8-4.5-2-6.5-3.5h-0.1c-2.3-1.8-4.3-3.9-5.8-6.4c-3.8-6.4-6.5-13.5-7.9-20.8
		c-0.6-2.8-1-5.7-1.4-8.8c0-0.2,0-0.3,0-0.5l0,0v-0.2l-0.1,0.1l0,0c-0.9,1.6-1.8,3.1-2.7,4.6c-0.8,1.3-1.6,2.5-2.5,3.8l-0.1,0.1
		c-0.9,1.3-1.9,2.6-2.9,3.9l-0.1,0.1c-0.5,0.6-1,1.3-1.6,2c-1.6,1.9-3.2,3.8-5,5.6c-0.6,0.6-1.2,1.2-1.8,1.8
		c-0.6,0.6-1.2,1.2-1.8,1.8c-1.2,1.2-2.5,2.3-3.8,3.4s-2.7,2.2-4.1,3.3c-11,8.4-24.6,12.9-38.4,12.6H209c-24.5-0.2-43.4-5-56.6-14.4
		c-13.6-9.6-20.4-23.8-20.4-42.7c0-5,0.5-10,1.4-14.9l0,0c0.2-1.1,0.4-2.1,0.7-3.2c18.7-51.6,24.1-105.2,25.4-139.5l0,0l0.6-3.4
		c0.8-4.3,3.5-7.9,7.3-10c9.3-5,21.5-7.5,36.6-7.5c14.7,0,23,9.6,24.9,28.8c1.6,15.7,0.9,29.7-2.2,42s-7.1,27.8-12.3,46.5
		c-5.1,18.7-7.7,35.3-7.7,49.7c0,10.8,6.4,16.6,19.1,17.2c0.8,0,1.6,0.1,2.5,0.1c15.7,0,29.3-13.8,40.8-41.3
		c8.9-21.1,15-44.6,18.2-70.6c0-0.3-0.1-0.7-0.1-1l0,0c-0.3-2.4-0.5-5.3-0.6-8.8c-0.2-4-0.3-7.9-0.5-11.8c-0.1-3.8-0.2-7.7-0.2-11.5
		v-8.6c0-21.4,16.6-32.1,49.9-32.1c8.3,0,13.5,2.7,15.6,8.2s3.2,13.8,3.2,25c0,15.7-3.5,40-10.6,72.9c-2.7,12.9-4.9,24.1-6.6,33.7
		c0,0,0,0.1,0,0.1c-0.2,1.4-0.4,2.7-0.7,4v0c-2.1,12.9-3,22.5-2.8,28.8c0,5.5,1.8,8.2,5.3,8.2c4.8,0,10.7-3,17.8-9.1
		c0.3-0.2,0.6-0.5,0.9-0.8l1.2-1c6.3-5.6,12.7-11.6,19.1-18.1c7-7.3,13.4-13.9,19.4-20c5.9-6.1,10-9.1,12.2-9.1
		C414.3,261.8,416.6,267.3,416.6,278.1z"/>
	<path class="st2" d="M310.7,375.2l-2.2-0.1h2L310.7,375.2z"/>
	<g>
		<path d="M540.7,254.4c0-23.4,4.2-44.3,12.7-62.5c8.5-18.3,20.5-32.5,36-42.8c15.5-10.2,33.6-15.4,54.4-15.4
			c15.5,0,29.8,3.9,42.8,11.6c13,7.8,23.6,18.7,31.8,32.7V55.6h44.3v315.1h-41.3V329c-8.2,14.6-19.1,26-32.7,34
			c-13.6,8-28.6,12.1-45,12.1c-20.8,0-38.9-5.2-54.4-15.6c-15.5-10.4-27.5-24.7-36-43C544.9,298.2,540.7,277.5,540.7,254.4z
			 M586.8,254.4c0,26,6.1,46.1,18.4,60.1c12.3,14,28.1,21.1,47.4,21.1c12.9,0,24.2-3.3,34-9.9c9.8-6.6,17.6-16,23.3-28.3
			c5.7-12.3,8.6-26.9,8.6-43.9c0-17.3-2.9-31.9-8.8-43.9c-5.9-12-13.8-21.1-23.7-27.4c-10-6.3-21.1-9.4-33.4-9.4
			c-19.3,0-35.1,7-47.4,21.1S586.8,228.1,586.8,254.4z"/>
		<path d="M898,375.1c-22.5,0-42.2-5-59-15.1c-16.8-10.1-29.9-24.4-39.3-42.8c-9.4-18.4-14-39.8-14-64.1c0-23.1,4.8-43.6,14.5-61.4
			c9.7-17.8,22.8-32,39.5-42.4c16.7-10.4,35.7-15.6,57.1-15.6c17.6,0,33.3,3.3,47.2,9.9c13.9,6.6,25.7,15.8,35.6,27.7
			c9.8,11.9,16.9,25.8,21.3,41.7c4.4,16,5.6,33.4,3.5,52.5H811.5V236h145.7c-0.9-21.7-6.8-38.5-17.8-50.7
			c-11-12.1-25.5-18.2-43.7-18.2c-13.2,0-24.7,3.4-34.5,10.3c-9.8,6.9-17.4,16.7-22.8,29.4c-5.4,12.7-8.1,28.2-8.1,46.3
			c0,18.1,2.6,33.7,7.9,46.7c5.3,13,12.9,23,22.8,30.1c9.9,7,21.9,10.5,36,10.5c16.7,0,30.5-4.2,41.5-12.7
			c11-8.5,18.2-20.3,21.7-35.6h43.9c-5.6,25.8-17.8,46-36.6,60.8C948.6,367.7,925.5,375.1,898,375.1z"/>
		<path d="M1213.5,301.4c0,22.8-8.5,40.8-25.5,54c-17,13.2-41,19.8-72,19.8c-30.4,0-54.5-7.2-72.2-21.5
			c-17.7-14.3-27.7-33.9-30.1-58.8h42.6c0.6,14.6,6.4,26.1,17.3,34.5s25.4,12.5,43.2,12.5c15.5,0,28-2.8,37.5-8.3
			c9.5-5.6,14.3-13.8,14.3-24.6c0-9.7-3.1-17-9.4-21.9c-6.3-5-16.8-8.8-31.4-11.4l-37.7-7c-21.4-4.1-37.9-11.6-49.6-22.6
			c-11.7-11-17.6-25.2-17.6-42.8c0-13.8,3.7-25.8,11.2-36.2c7.5-10.4,17.9-18.5,31.4-24.4c13.5-5.8,29.1-8.8,47-8.8
			c18.7,0,35.1,3.1,49.2,9.4c14,6.3,25.3,15.2,33.8,26.8c8.5,11.6,13.3,25.4,14.5,41.5h-42.6c-1.5-13.8-7-24.6-16.7-32.5
			c-9.7-7.9-22.2-11.9-37.7-11.9c-14,0-25.4,2.9-34,8.6c-8.6,5.7-12.9,13.5-12.9,23.5c0,9.4,3.1,16.5,9.4,21.3
			c6.3,4.8,16.5,8.7,30.5,11.6l39.5,7.5c23.1,4.1,40.2,11.3,51.4,21.5C1208,271.2,1213.5,284.7,1213.5,301.4z"/>
		<path d="M1293.8,84.1c0,8.2-3,15.1-9,20.8c-6,5.7-13.7,8.6-23,8.6c-9.7,0-17.5-2.9-23.5-8.6c-6-5.7-9-12.7-9-20.8
			c0-8.8,3-15.9,9-21.3c6-5.4,13.8-8.1,23.5-8.1c9.4,0,17,2.7,23,8.1C1290.8,68.2,1293.8,75.3,1293.8,84.1z M1284.2,370.7h-44.3
			V138.1h44.3V370.7z"/>
		<path d="M1416.7,460.2c-20.2,0-37.9-3.4-53.1-10.3c-15.2-6.9-27.1-16.8-35.8-29.6c-8.6-12.9-13.4-27.9-14.3-45.2h43
			c1.5,16.1,7.2,28.5,17.3,37.1c10.1,8.6,24.2,12.9,42.4,12.9c20.2,0,35.4-5.2,45.6-15.6c10.2-10.4,15.4-25.7,15.4-45.9v-42.1
			c-6.7,13.8-16.3,24.6-28.7,32.5c-12.4,7.9-26.6,11.9-42.4,11.9c-19.3,0-36.4-5-51.4-14.9c-14.9-9.9-26.6-23.7-35.1-41.3
			c-8.5-17.6-12.7-37.6-12.7-60.1c0-23.1,4.1-43.4,12.3-60.8c8.2-17.4,19.7-30.9,34.5-40.6c14.8-9.7,31.8-14.5,51.1-14.5
			c16.7,0,31.5,4,44.3,11.9c12.9,7.9,23.3,19.2,31.2,33.8v-41.3h41.3v224.7c0,30.7-9.2,54.6-27.7,71.8
			C1475.6,451.7,1449.8,460.2,1416.7,460.2z M1351.8,249.6c0,24,5.6,42.9,16.7,56.8c11.1,13.9,26.3,20.8,45.6,20.8
			c12.6,0,23.6-3.1,33.1-9.4c9.5-6.3,16.9-15.2,22.2-26.8c5.3-11.6,7.9-24.9,7.9-40.2c0-24-5.7-43.2-17.1-57.5
			c-11.4-14.3-26.8-21.5-46.1-21.5c-19,0-34.2,7-45.4,20.8C1357.4,206.6,1351.8,225.6,1351.8,249.6z"/>
		<path d="M1605.5,239.5v131.2h-44.3V138.1h41.3v38.6c7.9-12.9,18.2-23.3,30.9-31.2c12.7-7.9,27.1-11.9,43.2-11.9
			c24,0,43.2,7.5,57.7,22.4c14.5,14.9,21.7,36.3,21.7,64.1v150.5h-44.3V235.1c0-19.9-4.2-35.3-12.7-46.1
			c-8.5-10.8-21.1-16.2-37.7-16.2c-10.2,0-19.6,2.7-28.1,8.1c-8.5,5.4-15.2,13.1-20.2,23C1608,213.9,1605.5,225.7,1605.5,239.5z"/>
	</g>
</g>
</svg>
